<svg xmlns="http://www.w3.org/2000/svg" viewBox="0 0 32 32" fill="none"><path d="M16 9.3c-1.1-3.7 1.1-6.1 4.1-6.1-.4 1.5-.1 2.7.9 3.8 2.6-.3 4.8 1.3 5 4.1-1.5-.2-2.8.3-3.7 1.4 2.2 2.1 1.8 5.5-.4 7.2-1-1.2-2.2-1.9-3.7-1.8-.3 3.1-3.1 4.6-5.5 3.7.6-1.4.5-2.8-.2-4.1-2.8 1-5.5-.8-5.8-3.6 1.5-.1 2.7-.8 3.5-2-2-2.3-.8-5.5 1.8-6.5.6 1.4 1.7 2.4 3.2 2.8" stroke="#FFFFFF" stroke-width="1.8" stroke-linecap="round" stroke-linejoin="round"/><path d="M16 11.1c2.4-1.6 5.4.6 4.5 3.3-.8 2.6-4.4 3.2-6 1-1.1-1.6-.3-3.5 1.5-4.3Z" fill="#FFFFFF" opacity=".42"/><path d="M15.2 21.5c.1 3.2-1.2 5.4-3.8 6.6M15 24.5c3.1-.1 5.3 1 6.8 3.3M14.7 25.6c-2.4-.1-4.4-1.1-5.9-3" stroke="#FFFFFF" stroke-width="1.8" stroke-linecap="round"/></svg>
